<svg xmlns="http://www.w3.org/2000/svg" height="800" width="1200" viewBox="-6.82626 -4.1672 59.16092 25.0032"><g fill-rule="evenodd"><path d="M11.9063 4.2212l-3.003 2.1256L5.9536 4.255 2.9999 6.35 0 4.2225 5.9537 0l5.9526 4.2212" fill="#ff555f"/><path d="M3.0663 10.4352V6.322L0 4.2333v8.2902l6.0854 4.1453v-4.1773l-3.0191-2.0563M6.0854 12.7h2.9104V8.4667H6.0854z" fill="#25a5bd"/><path d="M6.0854 16.6688l6.0854-4.101V8.4666L6.0854 12.536v4.1328" fill="#1e2c4c"/><path d="M9.1144 10.5833l-3.029-2.1227L9.1001 6.35l3.0707 2.1135-3.0564 2.1198" fill="#ff555f"/><path d="M18.2827 9.6848c.6318 0 1.1562-.5403 1.1562-1.2173 0-.6774-.5244-1.2174-1.1562-1.2174-.6223 0-1.147.54-1.147 1.2171 0 .6773.5247 1.2176 1.1473 1.2176zm-1.0133.9687c.1865.3598.56.6085.9869.6085.6225 0 1.1205-.5228 1.1205-1.1658v-.0429l-.0177-.008c-.3466.3342-.7917.54-1.2896.54-1.067 0-1.9299-.9514-1.9299-2.1174 0-1.1745.8628-2.1175 1.9299-2.1175.498 0 .9427.2059 1.2896.5488l.0177-.009v-.4286h.9961v3.6348c0 1.1488-.8805 2.0746-2.0722 2.0746-.8004 0-1.4941-.4114-1.8674-1.0372zm6.5365-2.7438l.009-.0172c-.2201-.3942-.6072-.6598-1.056-.6598-.4664 0-.8273.2487-1.065.6598l.009.0172zm-.1146 1.3796l.6866.6598c-.396.3943-.9504.6342-1.5578.6342-1.2142 0-2.1826-.9427-2.1826-2.1166 0-1.174.942-2.1167 2.1212-2.1167a2.1087 2.1087 0 012.1121 2.1167c0 .1886-.0177.24-.0177.24h-3.2297c0 .4455.5368.9683 1.1528.9683.3608 0 .6775-.1542.9154-.3857zm2.6728-.7655v2.0595H25.4v-4.119h.9641v.5017l.0175.009c.327-.4136.7663-.625 1.2224-.625 1.7217 0 1.7648 1.6018 1.7648 2.0947v2.1386h-.9641V8.5238c0-.4929-.009-1.2499-1.0073-1.2499-.568 0-1.0332.5546-1.0332 1.25m5.6282-1.2563c-.639 0-1.1536.5508-1.1536 1.2324 0 .6906.5146 1.2409 1.1536 1.2409.6212 0 1.1449-.5503 1.1449-1.2409 0-.6816-.5237-1.2324-1.1449-1.2324zm.213 3.3999c-.5059 0-.9406-.2011-1.2957-.5594l-.018.009v2.054h-.9937v-5.707h.9937v.428l.018.009c.355-.3407.7898-.5506 1.2957-.5506 1.065 0 1.9259.9615 1.9259 2.159 0 1.1973-.861 2.1588-1.926 2.1588zm4.3336-.9927c.6318 0 1.1475-.5313 1.1475-1.2081 0-.6771-.516-1.2171-1.1472-1.2171-.6226 0-1.1473.54-1.1473 1.217 0 .6769.5247 1.2082 1.1473 1.2082zM36.326 6.35c.498 0 .9427.2059 1.2896.5485l.0177-.009v-.4286h.9959v4.011h-.9962v-.4114l-.0177-.0172c-.3466.3342-.7916.54-1.2895.54-1.0671 0-1.93-.9427-1.93-2.1166 0-1.174.8626-2.1167 1.93-2.1167zm6.5365 3.5991a2.1701 2.1701 0 01-1.5425.6342c-1.2028 0-2.1616-.9427-2.1616-2.1166 0-1.174.9588-2.1167 2.1616-2.1167.6012 0 1.1504.24 1.5425.6342l-.6884.634a1.1546 1.1546 0 00-.854-.3683c-.6626 0-1.1854.5482-1.1854 1.2168 0 .6683.5228 1.208 1.1853 1.208a1.2012 1.2012 0 00.8716-.377l.671.6514m1.9542-2.721v3.0907h-.998V7.2282h-.6917v-.9274h.6916V4.4979h.998v1.8029h.6917v.9274h-.6916" fill="#25a5bd"/></g></svg>